<?xml version="1.0" standalone="no"?><!DOCTYPE svg PUBLIC "-//W3C//DTD SVG 1.1//EN" "http://www.w3.org/Graphics/SVG/1.1/DTD/svg11.dtd"><svg t="1709726571190" class="icon" viewBox="0 0 1092 1024" version="1.1" xmlns="http://www.w3.org/2000/svg" p-id="12829" width="29.859375" height="28" xmlns:xlink="http://www.w3.org/1999/xlink"><path d="M56.883156 1012.623369c-56.883156-11.376631-56.883156-34.129894-56.883156-318.545676 0-216.155994 0-261.662519 22.753263-273.03915 22.753263-22.753263 56.883156-22.753263 79.636418 0 11.376631 0 22.753263 11.376631 22.753263 11.376631 11.376631 0 102.389681 56.883156 204.779363 113.766313 113.766313 68.259788 204.779363 113.766313 216.155994 113.766312s102.389681-45.506525 216.155994-113.766312c102.389681-56.883156 193.402732-113.766313 204.779363-113.766313 0 0 11.376631-11.376631 22.753262-11.376631 22.753263-22.753263 56.883156-22.753263 79.636419 0 22.753263 11.376631 22.753263 56.883156 22.753263 273.03915 0 250.285888 0 273.03915-22.753263 295.792413l-22.753263 34.129894H568.831563c-261.662519 0-500.571776 0-511.948407-11.376631z m295.792413-534.70167L159.272838 364.155387V204.882549C159.272838-11.273445 125.142944 0.103186 546.078301 0.103186s386.805463-11.376631 386.805463 204.779363v159.272838L739.481032 477.921699c-102.389681 56.883156-193.402732 113.766313-193.402731 113.766313s-91.01305-56.883156-193.402732-113.766313z m227.532626-68.259787c0-45.506525 11.376631-56.883156 45.506525-56.883157 45.506525 0 79.636419-11.376631 79.636419-34.129894s-22.753263-34.129894-68.259788-34.129893h-45.506525l-11.376631-56.883157c0-56.883156-22.753263-68.259788-45.506525-56.883156-11.376631 0-22.753263 22.753263-22.753263 56.883156v56.883157h-56.883156c-45.506525 0-68.259788 11.376631-68.259788 34.129893s34.129894 34.129894 79.636419 34.129894c34.129894 0 45.506525 11.376631 45.506525 45.506525 0 56.883156 11.376631 68.259788 34.129894 68.259788s34.129894-11.376631 34.129894-56.883156z" fill="#e0f7c9" p-id="12830"></path></svg>