<?xml version="1.0" standalone="no"?><!DOCTYPE svg PUBLIC "-//W3C//DTD SVG 1.1//EN" "http://www.w3.org/Graphics/SVG/1.1/DTD/svg11.dtd"><svg t="1709726638188" class="icon" viewBox="0 0 1024 1024" version="1.1" xmlns="http://www.w3.org/2000/svg" p-id="13948" width="28" height="28" xmlns:xlink="http://www.w3.org/1999/xlink"><path d="M845.824 220.34432c-10.07616-9.29792-23.26528-13.94688-36.39296-13.94688-1.55648 0-2.33472 0-3.87072 0-0.77824 0-9.29792 0.77824-22.46656 0.77824-22.46656 0-65.04448-1.55648-106.06592-11.61216-52.67456-12.36992-113.84832-70.4512-131.66592-82.08384-8.4992-5.4272-19.3536-8.51968-29.42976-8.51968-10.05568 0-20.11136 3.09248-29.40928 8.51968-2.31424 1.55648-65.80224 67.35872-127.75424 82.08384-41.04192 10.05568-85.17632 11.61216-106.84416 11.61216-13.94688 0-22.44608-0.77824-23.22432-0.77824-0.77824 0-2.33472 0-3.09248 0-13.94688 0-26.33728 4.64896-36.39296 13.94688-10.83392 9.29792-17.01888 23.22432-17.01888 37.1712l0 128.512c0 473.88672 321.31072 535.01952 334.47936 537.35424 3.09248 0.77824 6.20544 0.77824 9.27744 0.77824 3.09248 0 6.22592 0 9.3184-0.77824 13.9264-2.33472 336.7936-63.488 336.7936-537.35424l0-128.512C862.06464 243.56864 855.83872 229.64224 845.824 220.34432L845.824 220.34432zM726.56896 403.8656 504.34048 619.08992c-1.55648 2.33472-3.09248 4.66944-5.4272 6.22592-6.20544 6.18496-14.70464 9.27744-23.22432 9.27744-8.54016 0-17.03936-3.09248-24.00256-9.27744-1.55648-1.55648-3.85024-3.87072-4.64896-6.22592l-119.23456-115.36384c-12.3904-12.3904-12.3904-31.72352 0-44.11392 12.36992-12.41088 33.28-12.41088 45.6704 0l102.21568 98.32448 205.18912-198.20544c13.18912-12.3904 33.28-12.3904 45.6704 0C739.71712 371.34336 739.71712 391.4752 726.56896 403.8656L726.56896 403.8656z" p-id="13949" fill="#e0f7c9"></path></svg>